<svg xmlns="http://www.w3.org/2000/svg" viewBox="0 0 101.07 41.47"><defs><style>.cls-1{font-size:28.69px;font-family:Inter-BoldItalic, Inter;font-weight:700;font-style:italic;letter-spacing:-0.09em;}.cls-1,.cls-3{fill:#ce2c3b;}.cls-2{fill:#da7261;}.cls-4{fill:#d25246;}.cls-5{fill:#c61921;}.cls-6{fill:#c91d1d;}.cls-7{fill:#d42e4f;}.cls-8{fill:#d13345;}.cls-9{fill:#d4504f;}.cls-10{fill:#cd2e29;}</style></defs><g id="Ebene_2" data-name="Ebene 2"><g id="Ebene_1-2" data-name="Ebene 1"><text class="cls-1" transform="translate(44.24 24.78)">DOS</text><path class="cls-2" d="M46.26,34.43H44.77v-4.2h1.51a2.22,2.22,0,0,1,1.09.25,1.76,1.76,0,0,1,.71.72,2.48,2.48,0,0,1,.24,1.13,2.36,2.36,0,0,1-.25,1.13,1.74,1.74,0,0,1-.7.72A2.28,2.28,0,0,1,46.26,34.43Zm-.6-.76h.57a1.18,1.18,0,0,0,.9-.32,1.88,1.88,0,0,0,0-2,1.22,1.22,0,0,0-.9-.32h-.57Z"/><path class="cls-2" d="M49.4,30.87a.44.44,0,0,1-.33-.13.41.41,0,0,1,0-.62A.44.44,0,0,1,49.4,30a.48.48,0,0,1,.34.13.41.41,0,0,1,0,.62A.48.48,0,0,1,49.4,30.87ZM49,34.43V31.28h.88v3.15Z"/><path class="cls-2" d="M53.16,32.18l-.8,0a.44.44,0,0,0-.17-.26.57.57,0,0,0-.36-.11.71.71,0,0,0-.34.08.26.26,0,0,0-.14.23.23.23,0,0,0,.09.19.7.7,0,0,0,.31.13l.57.11c.61.13.91.41.91.86a.88.88,0,0,1-.18.54,1.19,1.19,0,0,1-.5.37,2,2,0,0,1-.72.13,1.67,1.67,0,0,1-1-.27,1,1,0,0,1-.44-.71l.87,0a.44.44,0,0,0,.19.29.69.69,0,0,0,.38.1.78.78,0,0,0,.37-.09.29.29,0,0,0,.14-.24c0-.15-.14-.26-.4-.31l-.55-.11c-.61-.12-.91-.42-.91-.9a.86.86,0,0,1,.36-.72,1.7,1.7,0,0,1,1-.26,1.56,1.56,0,0,1,.94.25A1,1,0,0,1,53.16,32.18Z"/><path class="cls-2" d="M55.46,31.28v.66h-.59v1.52a.31.31,0,0,0,.08.25.35.35,0,0,0,.21.06h.13l.09,0,.14.66-.19,0-.29,0a1.14,1.14,0,0,1-.76-.21.83.83,0,0,1-.29-.69V31.94h-.43v-.66H54v-.76h.88v.76Z"/><path class="cls-2" d="M56,34.43V31.28h.85v.55h0a.83.83,0,0,1,.29-.44.78.78,0,0,1,.47-.16,1.1,1.1,0,0,1,.27,0V32l-.17,0h-.19a.65.65,0,0,0-.48.18.61.61,0,0,0-.19.47v1.78Z"/><path class="cls-2" d="M58.83,30.87a.44.44,0,0,1-.33-.13.41.41,0,0,1,0-.62.44.44,0,0,1,.33-.13.47.47,0,0,1,.34.13.41.41,0,0,1,0,.62A.47.47,0,0,1,58.83,30.87Zm-.44,3.56V31.28h.88v3.15Z"/><path class="cls-2" d="M60,34.43v-4.2h.88v1.58h0a1.28,1.28,0,0,1,.17-.26.93.93,0,0,1,.29-.22,1,1,0,0,1,.44-.09,1.19,1.19,0,0,1,.64.18,1.23,1.23,0,0,1,.46.54,2,2,0,0,1,.18.9,2.14,2.14,0,0,1-.17.89,1.26,1.26,0,0,1-.46.55,1.21,1.21,0,0,1-.65.19.94.94,0,0,1-.43-.09.81.81,0,0,1-.29-.21,1.35,1.35,0,0,1-.18-.26h0v.5Zm.86-1.57a1.21,1.21,0,0,0,.17.67.6.6,0,0,0,1,0,1.23,1.23,0,0,0,.17-.67,1.21,1.21,0,0,0-.17-.67.57.57,0,0,0-.5-.25.58.58,0,0,0-.49.24A1.24,1.24,0,0,0,60.84,32.86Z"/><path class="cls-2" d="M65.66,33.09V31.28h.88v3.15H65.7v-.57h0a1,1,0,0,1-.36.45,1,1,0,0,1-.6.17,1,1,0,0,1-.77-.32,1.21,1.21,0,0,1-.3-.87v-2h.88v1.85a.6.6,0,0,0,.15.44.49.49,0,0,0,.39.17.61.61,0,0,0,.42-.17A.62.62,0,0,0,65.66,33.09Z"/><path class="cls-2" d="M68.91,31.28v.66h-.59v1.52a.31.31,0,0,0,.08.25.38.38,0,0,0,.22.06h.12l.09,0,.14.66-.18,0-.29,0a1.15,1.15,0,0,1-.77-.21.82.82,0,0,1-.28-.69V31.94H67v-.66h.44v-.76h.87v.76Z"/><path class="cls-2" d="M70.89,34.5a1.74,1.74,0,0,1-.84-.2,1.39,1.39,0,0,1-.54-.56,2,2,0,0,1-.19-.87,1.9,1.9,0,0,1,.19-.85,1.49,1.49,0,0,1,.53-.58,1.72,1.72,0,0,1,1.57,0,1.23,1.23,0,0,1,.53.53,1.83,1.83,0,0,1,.2.89v.24H70.19a.78.78,0,0,0,.19.56.66.66,0,0,0,.52.2.74.74,0,0,0,.38-.09.51.51,0,0,0,.23-.27l.81.05a1.1,1.1,0,0,1-.47.7A1.6,1.6,0,0,1,70.89,34.5Zm-.7-2h1.32a.62.62,0,0,0-.18-.46.59.59,0,0,0-.46-.19.66.66,0,0,0-.48.19A.67.67,0,0,0,70.19,32.54Z"/><path class="cls-2" d="M74.07,34.49a1.21,1.21,0,0,1-.65-.19,1.26,1.26,0,0,1-.46-.55A2.44,2.44,0,0,1,73,32a1.32,1.32,0,0,1,.47-.54,1.19,1.19,0,0,1,.64-.18,1,1,0,0,1,.44.09.93.93,0,0,1,.29.22.92.92,0,0,1,.16.26h0V30.23h.87v4.2H75v-.5h0a1,1,0,0,1-.17.26.81.81,0,0,1-.29.21A.94.94,0,0,1,74.07,34.49Zm.28-.7a.57.57,0,0,0,.49-.26,1.21,1.21,0,0,0,.17-.67,1.24,1.24,0,0,0-.17-.68.58.58,0,0,0-.49-.24.57.57,0,0,0-.5.25,1.21,1.21,0,0,0-.17.67,1.23,1.23,0,0,0,.17.67A.57.57,0,0,0,74.35,33.79Z"/><path class="cls-2" d="M78.82,34.49a1.16,1.16,0,0,1-.75-.23A1,1,0,0,1,77.94,33a1,1,0,0,1,.44-.3,2.59,2.59,0,0,1,.58-.12,5.66,5.66,0,0,0,.59-.08.2.2,0,0,0,.17-.2h0A.41.41,0,0,0,79.6,32a.52.52,0,0,0-.35-.1.6.6,0,0,0-.37.1.53.53,0,0,0-.19.26l-.81-.06a1.09,1.09,0,0,1,.45-.69,1.57,1.57,0,0,1,.93-.25,2,2,0,0,1,.65.11,1.06,1.06,0,0,1,.5.35,1,1,0,0,1,.19.61v2.12h-.83V34h0a1,1,0,0,1-.34.36A1.13,1.13,0,0,1,78.82,34.49Zm.25-.6a.68.68,0,0,0,.47-.17.52.52,0,0,0,.19-.41V33a.34.34,0,0,1-.16.06l-.23,0-.22,0a1.06,1.06,0,0,0-.37.13.34.34,0,0,0-.14.28.31.31,0,0,0,.13.28A.58.58,0,0,0,79.07,33.89Z"/><path class="cls-2" d="M82.15,32.61v1.82h-.87V31.28h.83v.56h0a.9.9,0,0,1,.35-.44,1,1,0,0,1,.6-.16,1,1,0,0,1,.79.32,1.21,1.21,0,0,1,.29.87v2h-.87V32.58a.64.64,0,0,0-.15-.45.53.53,0,0,0-.41-.16.54.54,0,0,0-.43.17A.64.64,0,0,0,82.15,32.61Z"/><path class="cls-2" d="M86,34.49a1.18,1.18,0,0,1-.65-.19,1.2,1.2,0,0,1-.46-.55,2.44,2.44,0,0,1,0-1.79,1.25,1.25,0,0,1,.47-.54,1.16,1.16,0,0,1,.63-.18,1,1,0,0,1,.45.09.88.88,0,0,1,.28.22,1,1,0,0,1,.17.26h0V30.23h.87v4.2H87v-.5h0a1.28,1.28,0,0,1-.17.26.9.9,0,0,1-.29.21A1,1,0,0,1,86,34.49Zm.27-.7a.56.56,0,0,0,.49-.26,1.13,1.13,0,0,0,.18-.67,1.16,1.16,0,0,0-.18-.68.56.56,0,0,0-.49-.24.55.55,0,0,0-.49.25,1.13,1.13,0,0,0-.17.67,1.23,1.23,0,0,0,.17.67A.56.56,0,0,0,86.31,33.79Z"/><path class="cls-2" d="M48.64,38.11a2.54,2.54,0,0,1-.26,1.18,1.85,1.85,0,0,1-.71.73,2.07,2.07,0,0,1-2,0,1.85,1.85,0,0,1-.7-.74,2.47,2.47,0,0,1-.26-1.17A2.52,2.52,0,0,1,45,36.94a1.83,1.83,0,0,1,.7-.73,2.07,2.07,0,0,1,2,0,1.85,1.85,0,0,1,.71.73A2.52,2.52,0,0,1,48.64,38.11Zm-.9,0a1.55,1.55,0,0,0-.3-1,1,1,0,0,0-.77-.35,1,1,0,0,0-.78.35,2,2,0,0,0,0,2,1,1,0,0,0,.78.35,1,1,0,0,0,.77-.35A1.56,1.56,0,0,0,47.74,38.11Z"/><path class="cls-2" d="M49.28,41.4V37.06h.86v.53h0a1.64,1.64,0,0,1,.17-.26.82.82,0,0,1,.29-.22.93.93,0,0,1,.44-.09,1.16,1.16,0,0,1,.63.18,1.25,1.25,0,0,1,.47.54,2,2,0,0,1,.18.9,2,2,0,0,1-.18.9,1.17,1.17,0,0,1-.46.54,1.1,1.1,0,0,1-.64.19,1,1,0,0,1-.44-.09.86.86,0,0,1-.29-.21,1.06,1.06,0,0,1-.17-.26h0V41.4Zm.85-2.76a1.16,1.16,0,0,0,.18.68.55.55,0,0,0,.49.25.54.54,0,0,0,.49-.26,1.13,1.13,0,0,0,.17-.67,1.15,1.15,0,0,0-.17-.67.61.61,0,0,0-1,0A1.11,1.11,0,0,0,50.13,38.64Z"/><path class="cls-2" d="M54.37,40.28a1.67,1.67,0,0,1-.83-.2,1.27,1.27,0,0,1-.54-.56,2,2,0,0,1,0-1.72,1.33,1.33,0,0,1,.53-.57,1.66,1.66,0,0,1,1.56,0,1.23,1.23,0,0,1,.53.53,1.75,1.75,0,0,1,.2.89v.24H53.67a.76.76,0,0,0,.2.55.66.66,0,0,0,.52.21.7.7,0,0,0,.38-.1.49.49,0,0,0,.22-.27l.81.05a1.12,1.12,0,0,1-.47.71A1.67,1.67,0,0,1,54.37,40.28Zm-.7-2H55a.62.62,0,0,0-.18-.46.65.65,0,0,0-.47-.19.69.69,0,0,0-.48.19A.72.72,0,0,0,53.67,38.32Z"/><path class="cls-2" d="M56.39,40.22V37.06h.85v.55h0a.88.88,0,0,1,.29-.44A.78.78,0,0,1,58,37a1.27,1.27,0,0,1,.28,0v.78l-.17,0h-.2a.65.65,0,0,0-.48.18.61.61,0,0,0-.19.47v1.79Z"/><path class="cls-2" d="M59.57,40.28a1.16,1.16,0,0,1-.75-.24.84.84,0,0,1-.3-.7.87.87,0,0,1,.17-.56.94.94,0,0,1,.43-.29,1.87,1.87,0,0,1,.58-.12,4.73,4.73,0,0,0,.59-.09.2.2,0,0,0,.18-.2h0a.38.38,0,0,0-.12-.3.54.54,0,0,0-.35-.11.71.71,0,0,0-.38.1.51.51,0,0,0-.18.26L58.63,38a1.09,1.09,0,0,1,.45-.69A1.64,1.64,0,0,1,60,37a2,2,0,0,1,.66.11,1.13,1.13,0,0,1,.5.35,1,1,0,0,1,.18.61v2.13h-.83v-.44h0a.9.9,0,0,1-.34.36A1.16,1.16,0,0,1,59.57,40.28Zm.25-.61a.67.67,0,0,0,.47-.16.56.56,0,0,0,.18-.42v-.34a.35.35,0,0,1-.15.07l-.23,0-.22,0a.74.74,0,0,0-.37.13.29.29,0,0,0-.14.28.3.3,0,0,0,.13.27A.54.54,0,0,0,59.82,39.67Z"/><path class="cls-2" d="M63.7,37.06v.66h-.59v1.53c0,.12,0,.2.08.24a.3.3,0,0,0,.21.07l.13,0h.09l.14.65-.19,0a1.17,1.17,0,0,1-.29,0,1.09,1.09,0,0,1-.76-.21.83.83,0,0,1-.29-.69V37.72H61.8v-.66h.43v-.75h.88v.75Z"/><path class="cls-2" d="M64.71,36.66a.49.49,0,0,1-.33-.13.41.41,0,0,1-.14-.32.39.39,0,0,1,.14-.31.48.48,0,0,1,.66,0,.39.39,0,0,1,.14.31.41.41,0,0,1-.14.32A.49.49,0,0,1,64.71,36.66Zm-.44,3.56V37.06h.87v3.16Z"/><path class="cls-2" d="M66.72,38.39v1.83h-.88V37.06h.84v.56h0a.91.91,0,0,1,.36-.44,1.1,1.1,0,0,1,.59-.16,1,1,0,0,1,.79.32,1.21,1.21,0,0,1,.3.87v2h-.88V38.37a.61.61,0,0,0-.14-.46.54.54,0,0,0-.42-.16.6.6,0,0,0-.43.17A.64.64,0,0,0,66.72,38.39Z"/><path class="cls-2" d="M70.86,41.47a1.7,1.7,0,0,1-1-.26,1,1,0,0,1-.44-.62l.81-.11a.52.52,0,0,0,.2.25.83.83,0,0,0,.45.11.77.77,0,0,0,.47-.14.55.55,0,0,0,.19-.46v-.58h0a.9.9,0,0,1-.3.35,1,1,0,0,1-.6.16A1.31,1.31,0,0,1,70,40a1.21,1.21,0,0,1-.46-.51,2,2,0,0,1-.17-.87,2,2,0,0,1,.18-.89A1.23,1.23,0,0,1,70,37.2,1.21,1.21,0,0,1,70.6,37a1,1,0,0,1,.44.09.82.82,0,0,1,.29.22,1.15,1.15,0,0,1,.17.26h0v-.53h.87v3.19a1.11,1.11,0,0,1-.2.67,1.18,1.18,0,0,1-.54.41A2.2,2.2,0,0,1,70.86,41.47Zm0-1.95a.58.58,0,0,0,.49-.24,1.12,1.12,0,0,0,.17-.65,1.15,1.15,0,0,0-.17-.66.62.62,0,0,0-1,0,1.2,1.2,0,0,0-.17.66,1.14,1.14,0,0,0,.17.65A.58.58,0,0,0,70.88,39.52Z"/><path class="cls-2" d="M76.74,37.22a.58.58,0,0,0-.21-.39A.88.88,0,0,0,76,36.7a.8.8,0,0,0-.5.13.41.41,0,0,0-.18.34.38.38,0,0,0,.2.34,1.54,1.54,0,0,0,.47.18l.38.09A2.19,2.19,0,0,1,77,38a1.25,1.25,0,0,1,.45.4,1.11,1.11,0,0,1,.16.6,1.14,1.14,0,0,1-.43.92,1.94,1.94,0,0,1-1.2.34,2,2,0,0,1-1.23-.35,1.27,1.27,0,0,1-.47-1h.86a.6.6,0,0,0,.25.47,1,1,0,0,0,.58.16,1,1,0,0,0,.54-.14.46.46,0,0,0,.2-.38.34.34,0,0,0-.19-.32,1.52,1.52,0,0,0-.52-.2l-.46-.12a1.83,1.83,0,0,1-.84-.4.94.94,0,0,1-.31-.74,1.09,1.09,0,0,1,.21-.67,1.33,1.33,0,0,1,.56-.45A2.19,2.19,0,0,1,76,36a2,2,0,0,1,.81.16,1.3,1.3,0,0,1,.55.45,1.14,1.14,0,0,1,.2.66Z"/><path class="cls-2" d="M78.77,41.4l-.31,0a1,1,0,0,1-.24-.07l.19-.65a1,1,0,0,0,.4,0,.38.38,0,0,0,.25-.26l0-.13L78,37.06h.92l.65,2.32h0l.66-2.32h.93l-1.23,3.49a1.32,1.32,0,0,1-.41.61A1.17,1.17,0,0,1,78.77,41.4Z"/><path class="cls-2" d="M84,38l-.8,0a.44.44,0,0,0-.17-.26.57.57,0,0,0-.36-.11.62.62,0,0,0-.34.09.23.23,0,0,0-.14.22.27.27,0,0,0,.09.2.71.71,0,0,0,.31.12l.57.12c.61.12.91.4.91.85a.84.84,0,0,1-.18.54,1.19,1.19,0,0,1-.5.37,1.81,1.81,0,0,1-.72.13,1.74,1.74,0,0,1-1-.26,1.06,1.06,0,0,1-.44-.72l.87,0a.42.42,0,0,0,.19.29.63.63,0,0,0,.38.1.68.68,0,0,0,.37-.09.28.28,0,0,0,.14-.23c0-.16-.14-.26-.4-.32l-.55-.1c-.61-.13-.91-.43-.91-.91a.83.83,0,0,1,.36-.71,1.9,1.9,0,0,1,1.92,0A1,1,0,0,1,84,38Z"/><path class="cls-2" d="M86.31,37.06v.66h-.59v1.53c0,.12,0,.2.08.24a.3.3,0,0,0,.21.07l.13,0h.09l.14.65-.19,0a1.17,1.17,0,0,1-.29,0,1.09,1.09,0,0,1-.76-.21.83.83,0,0,1-.29-.69V37.72h-.43v-.66h.43v-.75h.88v.75Z"/><path class="cls-2" d="M88.29,40.28a1.68,1.68,0,0,1-.84-.2,1.33,1.33,0,0,1-.54-.56,2,2,0,0,1,0-1.72,1.39,1.39,0,0,1,.53-.57,1.66,1.66,0,0,1,1.56,0,1.31,1.31,0,0,1,.54.53,1.86,1.86,0,0,1,.19.89v.24H87.58a.76.76,0,0,0,.2.55.76.76,0,0,0,.9.11.51.51,0,0,0,.23-.27l.8.05a1.1,1.1,0,0,1-.46.71A1.72,1.72,0,0,1,88.29,40.28Zm-.71-2h1.33a.62.62,0,0,0-.18-.46.68.68,0,0,0-.94,0A.68.68,0,0,0,87.58,38.32Z"/><path class="cls-2" d="M90.3,40.22V37.06h.84v.56h0a.92.92,0,0,1,.33-.44,1,1,0,0,1,1.11,0,.8.8,0,0,1,.3.44h0a.82.82,0,0,1,.35-.43,1.08,1.08,0,0,1,.6-.17,1,1,0,0,1,.72.28,1.11,1.11,0,0,1,.28.8v2.12H94V38.27a.5.5,0,0,0-.14-.4.51.51,0,0,0-.34-.13.49.49,0,0,0-.38.15.6.6,0,0,0-.13.4v1.93h-.85v-2a.51.51,0,0,0-.13-.37.5.5,0,0,0-.71,0,.6.6,0,0,0-.15.42v1.9Z"/><path class="cls-2" d="M98.2,38l-.8,0a.48.48,0,0,0-.16-.26.58.58,0,0,0-.37-.11.62.62,0,0,0-.34.09.25.25,0,0,0-.14.22.27.27,0,0,0,.09.2.71.71,0,0,0,.31.12l.57.12c.61.12.91.4.91.85a.84.84,0,0,1-.18.54,1.19,1.19,0,0,1-.5.37,1.81,1.81,0,0,1-.72.13,1.74,1.74,0,0,1-1-.26,1,1,0,0,1-.43-.72l.86,0a.46.46,0,0,0,.19.29.63.63,0,0,0,.38.1.68.68,0,0,0,.37-.09.26.26,0,0,0,.14-.23c0-.16-.13-.26-.4-.32l-.55-.1c-.61-.13-.91-.43-.91-.91a.81.81,0,0,1,.37-.71,1.57,1.57,0,0,1,1-.27,1.61,1.61,0,0,1,.94.25A1,1,0,0,1,98.2,38Z"/><path class="cls-2" d="M99.34,40.27a.48.48,0,0,1-.35-.14.48.48,0,0,1,0-.7.48.48,0,0,1,.35-.14.49.49,0,0,1,.34.14.48.48,0,0,1,0,.7A.49.49,0,0,1,99.34,40.27Z"/><path class="cls-3" d="M22.2,25a.52.52,0,0,0-.52.52.52.52,0,0,0,1,0A.52.52,0,0,0,22.2,25Z"/><path class="cls-3" d="M27.41,25.48,24.81,21H19.6L17,25.48l1.12,1.95L21,25.76a1.27,1.27,0,0,1,0-.28,1.23,1.23,0,1,1,.38.89L18.47,28,19.6,30h5.21Z"/><path class="cls-4" d="M6.4,15.37a1.14,1.14,0,0,1,0,.55L9.3,17.6l1.12-2-1.12-2Z"/><path class="cls-4" d="M5.66,15.91a.52.52,0,0,0-.9-.52.52.52,0,1,0,.9.52Z"/><path class="cls-4" d="M5.56,16.82v3.34H7.82l1.12-1.95L6.05,16.54A1.26,1.26,0,0,1,5.56,16.82Z"/><path class="cls-4" d="M2.61,20.16H4.86V16.82a1.19,1.19,0,0,1-.26-.11,1.23,1.23,0,1,1,1.23-2.12,1.12,1.12,0,0,1,.22.16l2.89-1.67L7.82,11.13H2.6L0,15.64Z"/><path class="cls-5" d="M12.87,29.5a1.33,1.33,0,0,1,.49-.28V25.88H11.11L10,27.83Z"/><path class="cls-5" d="M13.71,29.87a.52.52,0,0,0-.52.52.52.52,0,1,0,1,0A.52.52,0,0,0,13.71,29.87Z"/><path class="cls-5" d="M14.55,29.5l2.89-1.67-1.12-1.95H14.06v3.34A1.26,1.26,0,0,1,14.55,29.5Z"/><path class="cls-5" d="M18.92,30.39l-1.13-1.95L14.9,30.11a1.26,1.26,0,0,1,0,.28,1.23,1.23,0,1,1-2.45,0,1.27,1.27,0,0,1,0-.28l-2.9-1.67L8.5,30.39l2.61,4.52h5.21Z"/><polygon class="cls-6" points="2.61 30.79 7.82 30.79 10.42 35.3 7.82 39.81 2.61 39.81 0 35.3 2.61 30.79"/><polygon class="cls-7" points="28.11 16.06 33.32 16.06 35.93 20.58 33.32 25.09 28.11 25.09 25.51 20.58 28.11 16.06"/><path class="cls-8" d="M21,15.37a1.28,1.28,0,0,0,0,.55L18.12,17.6l-1.13-2,1.13-2Z"/><path class="cls-8" d="M21.75,15.91a.52.52,0,1,1,.9-.52.52.52,0,0,1-.9.52Z"/><path class="cls-8" d="M21.85,16.82h0a1.23,1.23,0,0,1-.5-.28v0A1.36,1.36,0,0,0,21.85,16.82Z"/><path class="cls-8" d="M25.92,18.22h0l-1.13,1.94H19.59l-1.12-2,2.88-1.65a1.23,1.23,0,0,0,.5.28,1.16,1.16,0,0,0,.37.07,1.27,1.27,0,0,0,.34,0v0a2.72,2.72,0,0,0,.25-.11,1.22,1.22,0,1,0-1.22-2.12,1.34,1.34,0,0,0-.23.16l-2.89-1.67,1.12-1.94H24.8l2.61,4.5Z"/><polygon class="cls-8" points="21.35 16.55 18.46 18.2 18.46 18.19 21.31 16.51 21.35 16.55"/><polygon class="cls-2" points="2.61 1.34 7.82 1.34 10.42 5.85 7.82 10.36 2.61 10.36 0 5.85 2.61 1.34"/><path class="cls-9" d="M14.55,11.65a1.26,1.26,0,0,1-.49.28v3.34h2.25l1.13-1.95Z"/><path class="cls-9" d="M13.71,11.28a.52.52,0,0,0,.52-.52.52.52,0,0,0-1,0A.52.52,0,0,0,13.71,11.28Z"/><path class="cls-9" d="M12.87,11.65,10,13.32l1.13,1.95h2.25V11.93A1.33,1.33,0,0,1,12.87,11.65Z"/><path class="cls-9" d="M8.5,10.76l1.13,2L12.52,11a1.26,1.26,0,0,1,0-.28,1.23,1.23,0,1,1,2.46,0,.86.86,0,0,1,0,.28l2.9,1.67,1.12-2L16.31,6.24h-5.2Z"/><path class="cls-5" d="M12.48,20.58a1.23,1.23,0,1,1,1.23,1.22A1.24,1.24,0,0,1,12.48,20.58Zm.71,0a.53.53,0,0,0,.52.52.52.52,0,0,0,.52-.52.52.52,0,0,0-.52-.52A.52.52,0,0,0,13.19,20.58Z"/><path class="cls-10" d="M5.66,25.74A.51.51,0,0,0,5.47,25a.52.52,0,1,0,.19.71Z"/><path class="cls-10" d="M9,28,7.82,30H2.61v0L0,25.48,2.61,21H4.86v3.34a.78.78,0,0,0-.21.09.21.21,0,0,0-.1.06.66.66,0,0,0-.16.11l-.1.1a1.37,1.37,0,0,0-.26.49,1.34,1.34,0,0,0,0,.63.88.88,0,0,0,.13.3.86.86,0,0,0,.2.27,1.08,1.08,0,0,0,.24.18,1.22,1.22,0,0,0,1.45-.17Z"/><path class="cls-10" d="M10.42,25.49,9.3,27.43,6.4,25.75a1.1,1.1,0,0,0,0-.57,1.19,1.19,0,0,0-.31-.56.87.87,0,0,0-.39-.26.39.39,0,0,0-.14-.05h0V21H7.82Z"/></g></g></svg>