<?xml version="1.0" encoding="UTF-8" standalone="no"?>
<!-- Created with Inkscape (http://www.inkscape.org/) -->

<svg
   xmlns:dc="http://purl.org/dc/elements/1.1/"
   xmlns:cc="http://creativecommons.org/ns#"
   xmlns:rdf="http://www.w3.org/1999/02/22-rdf-syntax-ns#"
   xmlns:svg="http://www.w3.org/2000/svg"
   xmlns="http://www.w3.org/2000/svg"
   xmlns:sodipodi="http://sodipodi.sourceforge.net/DTD/sodipodi-0.dtd"
   xmlns:inkscape="http://www.inkscape.org/namespaces/inkscape"
   width="250"
   height="250"
   viewBox="0 0 66.145832 66.145835"
   version="1.1"
   id="svg8"
   inkscape:version="0.92.2 (5c3e80d, 2017-08-06)"
   sodipodi:docname="Logo-TUB.svg"
   inkscape:export-filename="C:\Users\Martin\Documents\RetroSmart\Grafiken\Homepage\TUB\rect832.png"
   inkscape:export-xdpi="96"
   inkscape:export-ydpi="96">
  <defs
     id="defs2" />
  <sodipodi:namedview
     id="base"
     pagecolor="#ffffff"
     bordercolor="#666666"
     borderopacity="1.0"
     inkscape:pageopacity="0.0"
     inkscape:pageshadow="2"
     inkscape:zoom="1.979899"
     inkscape:cx="110.78755"
     inkscape:cy="127.71899"
     inkscape:document-units="mm"
     inkscape:current-layer="g840"
     showgrid="false"
     units="px"
     inkscape:window-width="1920"
     inkscape:window-height="1017"
     inkscape:window-x="1912"
     inkscape:window-y="518"
     inkscape:window-maximized="1" />
  <metadata
     id="metadata5">
    <rdf:RDF>
      <cc:Work
         rdf:about="">
        <dc:format>image/svg+xml</dc:format>
        <dc:type
           rdf:resource="http://purl.org/dc/dcmitype/StillImage" />
        <dc:title></dc:title>
      </cc:Work>
    </rdf:RDF>
  </metadata>
  <g
     inkscape:label="Ebene 1"
     inkscape:groupmode="layer"
     id="layer1"
     transform="translate(0,-230.85415)">
    <g
       id="g816"
       inkscape:export-xdpi="96"
       inkscape:export-ydpi="96">
      <rect
         y="233.08482"
         x="2.2306678"
         height="61.684498"
         width="61.684498"
         id="rect832"
         style="fill:#ffffff;fill-opacity:1;stroke:none;stroke-width:4.461;stroke-linecap:round;stroke-linejoin:miter;stroke-miterlimit:4;stroke-dasharray:none;stroke-opacity:1;paint-order:fill markers stroke" />
      <g
         id="g840"
         transform="translate(-183.34689,-13.898015)">
        <path
           style="fill:#ed0000;fill-opacity:1;stroke-width:0.02076642"
           d="m 226.30472,294.97899 c 0,-0.11777 3.01122,-31.42436 3.02464,-31.44606 0.009,-0.0152 1.56086,-0.0186 5.11967,-0.0111 2.8084,0.006 5.1103,0.0148 5.11533,0.0199 0.0113,0.0113 0.10916,-1.03044 -1.04926,11.16859 -0.53633,5.64795 -0.99012,10.39049 -1.00842,10.53897 -0.22895,1.85719 -1.05037,3.88293 -2.18939,5.39927 -0.58531,0.77921 -1.33981,1.52529 -2.17003,2.14582 -1.55189,1.1599 -3.20633,1.85746 -5.02809,2.11996 -0.50697,0.073 -1.18333,0.12602 -1.61198,0.12622 h -0.20247 v -0.0617 z m 9.33668,-12.65978 c 0.053,-0.12688 0.16815,-0.60828 0.20811,-0.87019 0.0542,-0.35497 0.0498,-0.83574 -0.009,-1.05466 -0.13314,-0.49148 -0.48439,-0.86442 -0.97433,-1.03449 -0.20667,-0.0717 -0.40127,-0.10501 -0.68305,-0.11678 -1.16388,-0.0487 -1.89726,0.50264 -1.89726,1.42615 0,0.40326 0.13949,0.69704 0.43609,0.91846 0.04,0.0298 0.0675,0.0597 0.061,0.0664 -0.006,0.007 -0.0905,0.003 -0.18689,-0.008 -0.27371,-0.0315 -1.96506,-0.0268 -1.98568,0.006 -0.0196,0.0307 -0.0858,0.67874 -0.0732,0.71644 0.007,0.0206 0.53366,0.026 2.54104,0.026 h 2.53235 z m -1.90949,-0.72741 c -0.52409,-0.11296 -0.82292,-0.39096 -0.82315,-0.76577 -2.3e-4,-0.18211 0.0244,-0.27145 0.10926,-0.39774 0.17828,-0.26539 0.61458,-0.40499 1.16755,-0.37355 0.67894,0.0386 1.02178,0.27238 1.09203,0.74467 0.0189,0.12704 0.0169,0.19829 -0.0111,0.38857 -0.0188,0.12816 -0.0504,0.2767 -0.0702,0.3301 l -0.0361,0.0971 -0.64311,0.004 c -0.49991,0.003 -0.67477,-0.004 -0.78529,-0.027 z m 1.19227,-3.01921 c 0.80475,-0.164 1.25348,-0.67719 1.37066,-1.56758 0.0351,-0.26682 0.0135,-0.85831 -0.0405,-1.109 -0.0232,-0.1074 -0.0496,-0.20284 -0.0589,-0.21209 -0.0174,-0.0174 -0.54411,0.0603 -0.57176,0.0844 -0.009,0.007 0.005,0.10183 0.0299,0.20977 0.0615,0.26538 0.0674,0.8509 0.0108,1.05807 -0.14093,0.51548 -0.43974,0.75052 -1.01669,0.79971 -0.14333,0.0122 -0.16248,0.01 -0.17529,-0.0237 -0.008,-0.0206 0.0303,-0.505 0.085,-1.07644 0.0547,-0.57143 0.0961,-1.06699 0.0922,-1.10126 -0.007,-0.0614 -0.009,-0.0625 -0.16287,-0.0783 -0.32602,-0.0336 -0.74559,0.0241 -1.00277,0.13781 -0.35374,0.15644 -0.62558,0.45158 -0.75275,0.81725 -0.24776,0.71242 -0.0756,1.41824 0.43393,1.77946 0.2403,0.17035 0.5261,0.27828 0.85436,0.32264 0.21894,0.0296 0.6565,0.01 0.90472,-0.0407 z m -1.18508,-0.78754 c -0.0286,-0.009 -0.10064,-0.0406 -0.16017,-0.0708 -0.24409,-0.12394 -0.3606,-0.29634 -0.37562,-0.55583 -0.0118,-0.20436 0.0213,-0.34011 0.12055,-0.49363 0.09,-0.1393 0.21681,-0.23556 0.38769,-0.29435 0.11553,-0.0398 0.32865,-0.055 0.34499,-0.0247 0.005,0.009 -0.0225,0.32863 -0.0603,0.71125 -0.0377,0.38262 -0.069,0.70736 -0.0694,0.72163 -7e-4,0.0287 -0.10352,0.0323 -0.18772,0.006 z m 2.68282,-3.10069 c 0.0247,-0.0197 0.0407,-0.11186 0.0657,-0.37854 0.0181,-0.19392 0.0263,-0.35923 0.0181,-0.36735 -0.008,-0.008 -0.44017,-0.0185 -0.95986,-0.023 -1.03753,-0.009 -1.12129,-0.0175 -1.38817,-0.14079 -0.19495,-0.0901 -0.28315,-0.16922 -0.35802,-0.3213 -0.0634,-0.12887 -0.0653,-0.14042 -0.0578,-0.35705 l 0.008,-0.22388 -0.34944,-0.0174 c -0.19218,-0.01 -0.35572,-0.0111 -0.3634,-0.003 -0.008,0.008 -0.014,0.11836 -0.014,0.24587 0,0.21634 0.004,0.24089 0.0643,0.36683 0.0843,0.17695 0.21975,0.32388 0.39065,0.42383 0.176,0.10293 0.19113,0.12634 0.071,0.10987 -0.0512,-0.007 -0.1915,-0.0191 -0.31174,-0.0269 -0.17013,-0.011 -0.22235,-0.008 -0.23547,0.0132 -0.0172,0.0277 -0.0691,0.48583 -0.0711,0.62707 l -0.001,0.0775 0.5555,0.006 c 1.77845,0.0188 2.90545,0.0148 2.93722,-0.0104 z m 0.24208,-2.50515 c 0.0317,-0.0201 0.10327,-0.67562 0.0803,-0.73553 -0.0126,-0.0328 -0.18591,-0.0352 -2.57759,-0.0352 -1.5199,0 -2.56884,0.008 -2.57578,0.0189 -0.0124,0.02 -0.0737,0.59534 -0.0738,0.69214 v 0.0569 l 1.06427,0.006 c 2.74366,0.0144 4.05697,0.0134 4.08263,-0.003 z m -4.21699,-1.75877 c 0.18734,-0.0934 0.29968,-0.275 0.29916,-0.48371 -3e-4,-0.1376 -0.021,-0.19897 -0.0979,-0.29031 -0.21853,-0.25972 -0.66896,-0.15899 -0.81515,0.18228 -0.0175,0.0408 -0.0319,0.13026 -0.0321,0.19879 -7e-4,0.34971 0.32948,0.55065 0.64595,0.39295 z m 4.45332,-0.41372 c 0.0197,-0.19416 0.0317,-0.36471 0.0266,-0.37898 -0.0117,-0.0328 -3.48909,-0.0386 -3.50931,-0.006 -0.0195,0.0316 -0.079,0.68205 -0.0656,0.71709 0.0106,0.0277 0.21616,0.0308 1.76223,0.0261 l 1.75017,-0.006 z m 0.12983,-1.46337 c 0.019,-0.0309 0.0792,-0.68162 0.0662,-0.71566 -0.01,-0.0254 -0.16073,-0.0312 -0.98348,-0.0381 -1.06643,-0.009 -1.09905,-0.0122 -1.36983,-0.14147 -0.1727,-0.0824 -0.36402,-0.2609 -0.43485,-0.40568 -0.14707,-0.30061 -0.0529,-0.69005 0.19735,-0.81663 0.15516,-0.0785 0.26115,-0.0844 1.50733,-0.0844 0.94747,0 1.21618,-0.006 1.22902,-0.026 0.0221,-0.0349 0.0842,-0.69711 0.0679,-0.72351 -0.008,-0.0137 -0.48969,-0.0187 -1.40239,-0.0146 l -1.38953,0.006 -0.16613,0.0585 c -0.29133,0.10261 -0.47008,0.2514 -0.59237,0.4931 -0.18091,0.35755 -0.18888,0.87306 -0.0188,1.2192 0.068,0.1385 0.24019,0.33967 0.36123,0.4221 0.0403,0.0274 0.0733,0.0569 0.0733,0.0655 2.4e-4,0.0143 -0.2416,0.006 -0.44864,-0.0156 -0.13943,-0.0146 -0.14703,7e-4 -0.18323,0.37073 -0.0177,0.1811 -0.0271,0.33763 -0.0208,0.34783 0.0161,0.026 3.49167,0.0244 3.50774,-0.001 z m -13.13003,26.24747 c -2.53479,-0.53526 -4.66731,-1.51308 -6.15671,-2.82301 -0.31375,-0.27594 -0.54291,-0.51313 -0.82976,-0.85882 -0.8749,-1.05437 -1.38523,-2.17759 -1.61502,-3.55464 -0.0968,-0.58008 -0.11443,-0.83066 -0.11327,-1.6094 l 0.001,-0.71644 0.70135,-7.25568 c 0.57082,-5.90535 0.69623,-7.25893 0.67384,-7.27313 -0.0151,-0.01 -4.29531,-0.0176 -9.51151,-0.0178 -9.40699,-3.1e-4 -9.48577,-6.3e-4 -9.69986,-0.042 -0.42729,-0.0825 -0.79626,-0.21399 -1.27093,-0.4531 -1.85444,-0.93412 -2.88018,-2.68079 -2.80704,-4.77992 0.0148,-0.42384 0.0524,-0.69435 0.14923,-1.07237 0.15547,-0.60702 0.43805,-1.18624 0.83909,-1.71989 0.19931,-0.26521 0.61606,-0.69437 0.8841,-0.91042 0.72867,-0.58731 1.62661,-0.98917 2.39415,-1.07145 0.15329,-0.0165 3.71936,-0.0229 12.62008,-0.0229 13.74569,0 12.57386,-0.012 13.14483,0.13476 0.71739,0.18441 1.40886,0.52414 1.96264,0.96426 0.20515,0.16305 0.54651,0.50693 0.73339,0.73881 0.47252,0.58632 0.80721,1.24566 0.98097,1.93252 0.10219,0.40396 0.13538,0.65872 0.14725,1.13053 l 0.0107,0.42571 -1.0395,10.77777 c -0.57172,5.92778 -1.19855,12.43034 -1.39297,14.45012 -0.1944,2.0198 -0.35871,3.68086 -0.36513,3.69124 -0.0157,0.0254 -0.009,0.0264 -0.441,-0.0648 z m -21.58063,-2.67674 c 0,-0.026 0.23393,-2.46716 0.70559,-7.3632 0.21565,-2.23862 0.56165,-5.8364 0.76888,-7.99507 0.20722,-2.15867 0.38523,-3.94588 0.39558,-3.97158 l 0.0188,-0.0467 h 4.53856 c 4.23909,0 4.53945,0.002 4.552,0.035 0.0135,0.0351 -1.83487,19.31139 -1.85481,19.34365 -0.015,0.0242 -9.12461,0.0221 -9.12461,-0.002 z"
           id="path842"
           inkscape:connector-curvature="0" />
      </g>
    </g>
  </g>
</svg>
